<svg aria-hidden="true" style="position: absolute; width: 0; height: 0; overflow: hidden;" version="1.1" xmlns="http://www.w3.org/2000/svg" xmlns:xlink="http://www.w3.org/1999/xlink">
<defs>
 
<symbol id="icon-croix" viewBox="0 0 32 32">
<path fill="none" stroke="#fff" style="stroke: var(--color1, #fff)" stroke-linejoin="miter" stroke-linecap="round" stroke-miterlimit="4" stroke-width="3.5556" d="M1.778 1.778l14.222 14.222 14.222-14.222"></path>
<path fill="none" stroke="#fff" style="stroke: var(--color1, #fff)" stroke-linejoin="miter" stroke-linecap="round" stroke-miterlimit="4" stroke-width="3.5556" d="M1.778 30.222l14.222-14.222 14.222 14.222"></path>
</symbol>

<symbol id="icon-background" viewBox="0 0 166 32">
<path d=""></path>
</symbol>
<symbol id="icon-arrow" viewBox="0 0 36 32">
<path   d="M1.062 17.414c-0.781-0.781-0.781-2.047 0-2.828l12.728-12.728c0.781-0.781 2.047-0.781 2.828 0s0.781 2.047 0 2.828l-11.314 11.314 11.314 11.314c0.781 0.781 0.781 2.047 0 2.828s-2.047 0.781-2.828 0l-12.728-12.728zM36 18h-33.524v-4h33.524v4z"></path>
</symbol>
<symbol id="icon-telephone" viewBox="0 0 29 32">
<path d="M26.637 23.305l-0.182-0.227c-1.441-1.821-2.645-2.769-3.678-2.894-0.893-0.122-1.757 0.496-2.675 1.131l-0.981 0.613c-0.118 0.059-0.234 0.106-0.343 0.139-0.574 0.162-2.023 0.258-2.843-0.493-0.955-0.874-2.436-2.472-3.588-3.87-1.1-1.446-2.31-3.249-2.941-4.385-0.533-0.962-0.087-2.307 0.211-2.806 0.059-0.098 0.136-0.195 0.221-0.29l0.865-0.799c0.013-0.013 0.018-0.028 0.029-0.039 0.008-0.008 0.022-0.006 0.032-0.013 0.781-0.659 1.589-1.338 1.7-2.211 0.13-1.025-0.507-2.411-1.95-4.231l-0.176-0.227c-0.893-1.145-2.244-2.877-4.185-2.591-0.763 0.113-1.445 0.374-2.148 0.815-0.007 0.004-0.011 0.013-0.017 0.017s-0.013 0.004-0.018 0.008l-0.979 0.725c-0.010 0.006-0.015 0.018-0.025 0.027-0.007 0.007-0.018 0.008-0.027 0.015-0.113 0.095-0.227 0.193-0.339 0.294-0.993 0.885-3.142 3.454-1.676 8.205 0.946 3.069 2.898 6.65 5.657 10.377l-0.027 0.022 1.522 1.896 0.013-0.010c2.992 3.539 6.037 6.275 8.827 7.931 1.862 1.106 3.489 1.471 4.827 1.471 1.761 0 3.023-0.633 3.655-1.044l0.398-0.266c0.045-0.031 0.077-0.074 0.109-0.113l0.867-0.652c0.010-0.008 0.015-0.020 0.025-0.028 0.004-0.004 0.011-0.003 0.017-0.007 0.616-0.563 1.043-1.152 1.34-1.851 0.769-1.791-0.608-3.506-1.518-4.641zM27.126 27.507c-0.231 0.543-0.568 1.005-1.056 1.453l-1.289 0.97c-1.168 0.759-3.664 1.697-7.29-0.456-2.79-1.656-5.862-4.456-8.884-8.098l-0.818-1.033c-2.846-3.774-4.848-7.389-5.793-10.452-1.228-3.983 0.319-6.119 1.355-7.042 0.105-0.095 0.21-0.183 0.314-0.272l0.004-0.004 0.939-0.696c0.571-0.361 1.1-0.563 1.709-0.655 1.301-0.196 2.359 1.176 3.136 2.173l0.182 0.231c1.613 2.034 1.768 3.002 1.718 3.396-0.056 0.438-0.722 1-1.31 1.494l-0.083 0.070c-0.003 0.003-0.004 0.007-0.007 0.010-0.004 0.003-0.008 0.004-0.013 0.007l-0.895 0.827c-0.006 0.006-0.008 0.013-0.014 0.020s-0.017 0.010-0.022 0.017c-0.139 0.155-0.258 0.311-0.354 0.472-0.503 0.841-0.977 2.58-0.228 3.926 0.654 1.176 1.898 3.034 3.042 4.535 1.196 1.45 2.72 3.097 3.709 4 0.741 0.676 1.771 0.903 2.663 0.903 0.477 0 0.916-0.066 1.247-0.16 0.175-0.050 0.356-0.123 0.542-0.214 0.011-0.006 0.017-0.015 0.028-0.022 0.006-0.003 0.014-0.001 0.020-0.006l1.039-0.65c0.034-0.022 0.056-0.052 0.084-0.080l0.013 0.014c0.64-0.444 1.369-0.965 1.826-0.889 0.405 0.049 1.323 0.438 2.939 2.478l0.186 0.234c0.787 0.981 1.865 2.325 1.362 3.5z"></path>
</symbol>
<symbol id="icon-star-grey" viewBox="0 0 30 32">
<path d="M8.965 1.136l8.153 9.994 12.812-1.483-9.994 8.153 1.483 12.813-8.153-9.994-12.813 1.483 9.994-8.153-1.483-12.813z"></path>
</symbol>
<symbol id="icon-star-dark" viewBox="0 0 32 32">
<path fill="#011f4a" style="fill: var(--color1, #011f4a)" d="M6.693 0l10.657 10.184 14.321-3.491-10.184 10.657 3.491 14.321-10.657-10.184-14.321 3.491 10.184-10.657-3.491-14.321z"></path>
</symbol>
<symbol id="icon-star-blue" viewBox="0 0 32 32">
<path fill="#2b7fff" style="fill: var(--color2, #2b7fff)" d="M24.979 0l-3.491 14.321 10.184 10.657-14.321-3.491-10.657 10.184 3.491-14.321-10.184-10.657 14.321 3.491 10.657-10.184z"></path>
</symbol>
<symbol id="icon-logo" viewBox="0 0 63 32">
<path fill="#2b7fff" style="fill: var(--color2, #2b7fff)" d="M1.332 0.624h5.004c1.18 0 2.087 0.089 2.721 0.266 0.647 0.165 1.104 0.438 1.37 0.818 0.266 0.368 0.4 0.888 0.4 1.56v1.522c0 0.343-0.139 0.666-0.419 0.97-0.266 0.304-0.584 0.514-0.951 0.628v0.095c0.482 0.051 0.92 0.26 1.313 0.628 0.406 0.355 0.609 0.755 0.609 1.199v1.903c0 1.002-0.4 1.712-1.199 2.131s-2.036 0.628-3.71 0.628h-5.137v-12.349zM6.336 5.648c0.469 0 0.818-0.038 1.046-0.114s0.381-0.197 0.457-0.362c0.089-0.178 0.133-0.431 0.133-0.761v-0.609c0-0.292-0.038-0.507-0.114-0.647-0.076-0.152-0.235-0.26-0.476-0.323-0.228-0.063-0.596-0.095-1.104-0.095h-1.979v2.911h2.036zM6.412 10.861c0.723 0 1.237-0.082 1.541-0.247s0.457-0.431 0.457-0.799v-0.989c0-0.457-0.12-0.78-0.361-0.97-0.228-0.19-0.641-0.285-1.237-0.285h-2.512v3.292h2.112zM17.919 13.163c-3.26 0-4.89-0.996-4.89-2.987v-3.311c0-1.154 0.368-1.992 1.104-2.512 0.748-0.52 1.896-0.78 3.444-0.78 1.459 0 2.524 0.254 3.197 0.761 0.685 0.495 1.027 1.338 1.027 2.531v2.245h-5.974v0.837c0 0.533 0.19 0.913 0.571 1.142s1.066 0.342 2.055 0.342c0.913 0 1.941-0.133 3.082-0.4v1.77c-1.129 0.241-2.334 0.361-3.615 0.361zM19.156 7.531v-1.332c0-0.304-0.127-0.533-0.381-0.685-0.241-0.152-0.653-0.228-1.237-0.228-0.672 0-1.123 0.076-1.351 0.228-0.241 0.165-0.361 0.393-0.361 0.685v1.332h3.33zM26.53 13.163c-0.863 0-1.509-0.076-1.941-0.228-0.419-0.165-0.717-0.45-0.894-0.856-0.165-0.419-0.247-1.040-0.247-1.865 0-0.736 0.089-1.313 0.266-1.731 0.19-0.419 0.488-0.717 0.894-0.894 0.419-0.19 0.989-0.285 1.712-0.285h3.12v-0.628c0-0.393-0.057-0.685-0.171-0.875-0.101-0.19-0.298-0.323-0.59-0.4-0.279-0.076-0.704-0.114-1.275-0.114-0.786 0-1.865 0.076-3.235 0.228v-1.75c1.002-0.127 2.175-0.19 3.52-0.19 1.18 0 2.087 0.089 2.721 0.266 0.647 0.178 1.11 0.482 1.389 0.913s0.419 1.059 0.419 1.884v6.336h-2.721v-0.837c-0.216 0.368-0.507 0.628-0.875 0.78-0.368 0.165-1.066 0.247-2.093 0.247zM27.615 11.432c0.558 0 0.958-0.019 1.199-0.057 0.178-0.025 0.298-0.063 0.361-0.114 0.076-0.051 0.14-0.133 0.19-0.247 0.051-0.089 0.076-0.222 0.076-0.4v-1.789h-1.903c-0.431 0-0.736 0.032-0.913 0.095-0.178 0.051-0.298 0.165-0.361 0.342-0.063 0.165-0.095 0.463-0.095 0.894 0 0.419 0.032 0.71 0.095 0.875s0.184 0.273 0.361 0.323c0.19 0.051 0.52 0.076 0.989 0.076zM37.86 13.163c-1.18 0-2.011-0.209-2.493-0.628-0.469-0.431-0.704-1.104-0.704-2.017v-6.755h2.778v6.374c0 0.355 0.032 0.622 0.095 0.799 0.076 0.178 0.216 0.304 0.419 0.381 0.216 0.076 0.539 0.114 0.97 0.114 0.545 0 0.945-0.032 1.199-0.095 0.254-0.076 0.425-0.203 0.514-0.381s0.133-0.45 0.133-0.818v-6.374h2.778v9.209h-2.74v-1.123c-0.203 0.875-1.186 1.313-2.949 1.313zM50.584 13.163c-0.469 0-0.863-0.019-1.18-0.057s-0.634-0.114-0.951-0.228c-0.355-0.114-0.647-0.273-0.875-0.476-0.216-0.203-0.393-0.482-0.533-0.837-0.152-0.368-0.228-0.793-0.228-1.275v-4.814h-1.865v-1.712h1.865v-2.664h2.778v2.664h2.531v1.712h-2.531v4.338c0 0.444 0.038 0.78 0.114 1.008 0.076 0.216 0.222 0.374 0.438 0.476 0.216 0.089 0.545 0.133 0.989 0.133 0.178 0 0.507-0.032 0.989-0.095v1.731c-0.596 0.063-1.11 0.095-1.541 0.095zM56.335 12.897l-3.672-9.133h3.025l2.074 6.507 1.884-6.507h2.873l-5.042 13.167h-2.816l1.674-4.034zM0.761 29.328l6.431-8.429h-6.241v-2.112h9.894v1.789l-6.431 8.429h6.545v2.131h-10.198v-1.808zM17.282 31.325c-0.571 0-1.040-0.019-1.408-0.057s-0.761-0.114-1.18-0.228c-0.457-0.127-0.824-0.304-1.104-0.533-0.279-0.241-0.514-0.577-0.704-1.008-0.19-0.419-0.285-0.926-0.285-1.522v-2.721c0-0.609 0.095-1.142 0.285-1.598s0.438-0.812 0.742-1.066c0.266-0.216 0.615-0.393 1.046-0.533 0.444-0.152 0.875-0.247 1.294-0.285 0.482-0.025 0.92-0.038 1.313-0.038 0.584 0 1.046 0.019 1.389 0.057 0.355 0.025 0.742 0.101 1.161 0.228 0.457 0.14 0.824 0.33 1.104 0.571 0.292 0.241 0.539 0.584 0.742 1.027 0.19 0.457 0.285 1.002 0.285 1.636v2.721c0 0.571-0.095 1.072-0.285 1.503-0.178 0.431-0.412 0.767-0.704 1.008-0.254 0.216-0.603 0.393-1.046 0.533-0.431 0.127-0.856 0.209-1.275 0.247-0.381 0.038-0.837 0.057-1.37 0.057zM17.282 29.594c0.52 0 0.913-0.038 1.18-0.114 0.266-0.089 0.45-0.222 0.552-0.4 0.114-0.178 0.171-0.438 0.171-0.78v-3.482c0-0.507-0.133-0.863-0.4-1.066s-0.767-0.304-1.503-0.304c-0.736 0-1.237 0.101-1.503 0.304s-0.4 0.558-0.4 1.066v3.482c0 0.343 0.051 0.603 0.152 0.78 0.114 0.178 0.304 0.311 0.571 0.4 0.266 0.076 0.66 0.114 1.18 0.114zM24.128 21.926h2.74v1.123c0.216-0.875 1.199-1.313 2.949-1.313 1.18 0 2.004 0.216 2.474 0.647 0.482 0.419 0.723 1.085 0.723 1.998v6.755h-2.778v-6.393c0-0.355-0.038-0.622-0.114-0.799-0.063-0.178-0.203-0.304-0.419-0.381-0.203-0.076-0.52-0.114-0.951-0.114-0.545 0-0.945 0.038-1.199 0.114-0.254 0.063-0.425 0.184-0.514 0.361s-0.133 0.45-0.133 0.818v6.393h-2.778v-9.209zM40.068 31.325c-3.26 0-4.89-0.996-4.89-2.987v-3.311c0-1.154 0.368-1.992 1.104-2.512 0.748-0.52 1.896-0.78 3.444-0.78 1.459 0 2.524 0.254 3.197 0.761 0.685 0.495 1.027 1.338 1.027 2.531v2.245h-5.974v0.837c0 0.533 0.19 0.913 0.571 1.142s1.066 0.343 2.055 0.343c0.913 0 1.941-0.133 3.082-0.4v1.77c-1.129 0.241-2.334 0.361-3.615 0.361zM41.304 25.693v-1.332c0-0.304-0.127-0.533-0.381-0.685-0.241-0.152-0.653-0.228-1.237-0.228-0.672 0-1.123 0.076-1.351 0.228-0.241 0.165-0.361 0.393-0.361 0.685v1.332h3.33z"></path>
</symbol>
<symbol id="icon-facebook" viewBox="0 0 19 32">
<path d="M18.090 0.668c-1.487-0.158-2.981-0.234-4.476-0.23-4.956 0-8.036 3.157-8.036 8.238v3.45h-4.163c-0.195 0-0.383 0.078-0.521 0.216s-0.216 0.326-0.216 0.521v5.674c0 0.195 0.078 0.383 0.216 0.521s0.326 0.216 0.521 0.216h4.163v11.377c0 0.195 0.078 0.383 0.216 0.521s0.326 0.216 0.521 0.216h5.862c0.195 0 0.383-0.078 0.521-0.216s0.216-0.326 0.216-0.521v-11.377h4.15c0.179 0 0.352-0.065 0.486-0.183s0.221-0.281 0.245-0.458l0.732-5.674c0.014-0.104 0.005-0.21-0.026-0.31s-0.082-0.193-0.151-0.272c-0.069-0.079-0.154-0.142-0.25-0.185s-0.199-0.066-0.304-0.066h-4.882v-2.887c0-1.429 0.287-2.026 2.075-2.026h3.005c0.195 0 0.383-0.078 0.521-0.216s0.216-0.326 0.216-0.521v-5.077c0-0.179-0.065-0.352-0.183-0.486s-0.281-0.221-0.458-0.245zM17.258 5.737l-2.269 0.001c-3.179 0-3.547 1.998-3.547 3.5v3.625c0 0.195 0.077 0.382 0.215 0.521s0.325 0.216 0.52 0.216h4.784l-0.544 4.2h-4.238c-0.195 0-0.383 0.078-0.521 0.216s-0.216 0.326-0.216 0.521v11.374h-4.389v-11.374c0-0.195-0.078-0.383-0.216-0.521s-0.326-0.216-0.521-0.216h-4.162v-4.2h4.162c0.195 0 0.383-0.078 0.521-0.216s0.216-0.326 0.216-0.521v-4.188c0-4.235 2.454-6.764 6.562-6.764 1.487 0 2.829 0.081 3.643 0.152v3.674z"></path>
</symbol>
<symbol id="icon-bottles" viewBox="0 0 31 32">
<path fill="#2b7fff" style="fill: var(--color2, #2b7fff)" d="M8.56 12.129h-8.681c-0.267 0-0.482 0.207-0.482 0.463v2.776c0 0.256 0.216 0.463 0.482 0.463h0.482v10.642c0 0.256 0.216 0.463 0.482 0.463h6.752c0.267 0 0.482-0.207 0.482-0.463v-10.642h0.482c0.267 0 0.482-0.207 0.482-0.463v-2.776c0-0.256-0.216-0.463-0.482-0.463zM3.255 20.92v-0.925h2.894v-0.925h-2.894v-0.925h3.858v6.015h-3.858v-2.313h0.965v-0.925h-0.965zM7.113 17.219h-4.34c-0.267 0-0.482 0.207-0.482 0.463v6.94c0 0.256 0.216 0.463 0.482 0.463h4.34v0.925h-5.787v-10.179h5.787v1.388zM8.078 14.905h-7.716v-1.851h7.716v1.851z"></path>
<path fill="#2b7fff" style="fill: var(--color2, #2b7fff)" d="M14.95 12.216v-3.383c0-0.263-0.216-0.476-0.482-0.476h-0.482v-2.382h0.964v-0.953h-5.305v0.953h3.376v2.382h-0.482c-0.267 0-0.482 0.213-0.482 0.476v3.383c-1.099 0.222-1.929 1.183-1.929 2.334v11.909c0 0.263 0.216 0.476 0.482 0.476h5.787c0.267 0 0.482-0.213 0.482-0.476v-11.909c0-1.15-0.83-2.112-1.929-2.334zM13.021 9.31h0.964v2.858h-0.964v-2.858zM12.539 13.121h1.929c0.798 0 1.447 0.641 1.447 1.429v0.476h-4.823v-0.476c0-0.788 0.649-1.429 1.447-1.429zM15.915 24.077h-4.823v-0.953h1.929v-0.953h-1.929v-6.193h4.823v8.098zM11.092 25.983v-0.953h4.823v0.953h-4.823z"></path>
<path fill="#2b7fff" style="fill: var(--color2, #2b7fff)" d="M27.278 11.537h-8.138c-0.25 0-0.452 0.209-0.452 0.467v14.465c0 0.258 0.202 0.467 0.452 0.467h8.138c0.25 0 0.452-0.209 0.452-0.467v-14.465c0-0.258-0.202-0.467-0.452-0.467zM26.826 26.002h-7.234v-13.532h7.234v13.532z"></path>
<path fill="#2b7fff" style="fill: var(--color2, #2b7fff)" d="M6.631 21.013h-1.206v0.592h1.206v-0.592z"></path>
<path fill="#2b7fff" style="fill: var(--color2, #2b7fff)" d="M15.071 22.197h-1.206v1.185h1.206v-1.185z"></path>
<path fill="#2b7fff" style="fill: var(--color2, #2b7fff)" d="M13.564 21.013c1.164 0 2.11-0.93 2.11-2.073s-0.946-2.073-2.11-2.073c-1.164 0-2.11 0.93-2.11 2.073s0.946 2.073 2.11 2.073zM13.564 17.904c0.582 0 1.055 0.465 1.055 1.036s-0.473 1.036-1.055 1.036c-0.582 0-1.055-0.465-1.055-1.036s0.473-1.036 1.055-1.036z"></path>
<path fill="#2b7fff" style="fill: var(--color2, #2b7fff)" d="M22.079 16.275h2.261c0.873 0 1.582-0.664 1.582-1.481s-0.71-1.481-1.582-1.481h-2.261c-0.873 0-1.582 0.664-1.582 1.481s0.71 1.481 1.582 1.481zM25.017 14.794c0 0.35-0.304 0.634-0.678 0.634h-0.678v-1.269h0.678c0.374 0 0.678 0.285 0.678 0.635zM22.079 14.16h0.678v1.269h-0.678c-0.374 0-0.678-0.285-0.678-0.634s0.304-0.635 0.678-0.635z"></path>
<path fill="#2b7fff" style="fill: var(--color2, #2b7fff)" d="M22.079 21.013h2.261c0.873 0 1.582-0.797 1.582-1.777s-0.71-1.777-1.582-1.777h-2.261c-0.873 0-1.582 0.797-1.582 1.777s0.71 1.777 1.582 1.777zM25.017 19.236c0 0.42-0.304 0.761-0.678 0.761h-0.678v-1.523h0.678c0.374 0 0.678 0.342 0.678 0.761zM22.079 18.475h0.678v1.523h-0.678c-0.374 0-0.678-0.342-0.678-0.761s0.304-0.761 0.678-0.761z"></path>
<path fill="#2b7fff" style="fill: var(--color2, #2b7fff)" d="M22.079 25.159h2.261c0.873 0 1.582-0.797 1.582-1.777s-0.71-1.777-1.582-1.777h-2.261c-0.873 0-1.582 0.797-1.582 1.777s0.71 1.777 1.582 1.777zM25.017 23.382c0 0.42-0.304 0.761-0.678 0.761h-0.678v-1.523h0.678c0.374 0 0.678 0.342 0.678 0.761zM22.079 22.621h0.678v1.523h-0.678c-0.374 0-0.678-0.342-0.678-0.761s0.304-0.761 0.678-0.761z"></path>
</symbol>
<symbol id="icon-crown" viewBox="0 0 32 32">
<path fill="#2b7fff" style="fill: var(--color2, #2b7fff)" d="M29.687 10.326c-0.253-0.229-0.559-0.376-0.883-0.425s-0.655 0.003-0.954 0.15l-6.312 3.080c-0.028 0.017-0.058 0.027-0.090 0.031s-0.063 0-0.094-0.010c-0.030-0.010-0.058-0.027-0.083-0.049s-0.044-0.050-0.059-0.081l-3.688-7.287c-0.15-0.301-0.37-0.553-0.638-0.728s-0.575-0.268-0.887-0.268c-0.312 0-0.618 0.092-0.887 0.268s-0.489 0.427-0.638 0.728l-3.687 7.287c-0.014 0.031-0.034 0.059-0.059 0.081s-0.052 0.039-0.083 0.049c-0.030 0.010-0.062 0.014-0.094 0.010s-0.062-0.014-0.090-0.031l-6.313-3.080c-0.298-0.149-0.628-0.202-0.953-0.155s-0.631 0.194-0.883 0.423-0.442 0.532-0.546 0.873c-0.104 0.342-0.119 0.708-0.043 1.059l3.188 14.891c0.054 0.252 0.154 0.489 0.293 0.697s0.316 0.383 0.519 0.513c0.267 0.18 0.574 0.275 0.888 0.275 0.16-0.002 0.32-0.025 0.475-0.069 5.827-1.773 11.983-1.778 17.812-0.014 0.227 0.072 0.466 0.093 0.701 0.061s0.461-0.116 0.666-0.247 0.383-0.306 0.524-0.516c0.141-0.209 0.242-0.447 0.297-0.701l3.175-14.891c0.079-0.348 0.067-0.713-0.034-1.054s-0.289-0.643-0.541-0.871zM28.812 11.866l-3.188 14.891c-0.017 0.072-0.057 0.136-0.112 0.179-0.062 0.033-0.132 0.043-0.2 0.028-6.094-1.852-12.531-1.852-18.625 0-0.033 0.010-0.067 0.013-0.101 0.008s-0.066-0.017-0.096-0.037c-0.029-0.019-0.055-0.045-0.075-0.076s-0.034-0.065-0.041-0.102l-3.188-14.891c-0.007-0.041-0.006-0.083 0.003-0.124s0.026-0.079 0.050-0.111c0.024-0.033 0.054-0.059 0.088-0.078s0.071-0.029 0.109-0.030l0.1 0.028 6.325 3.094c0.399 0.198 0.851 0.222 1.266 0.069s0.762-0.472 0.972-0.894l3.688-7.287c0.020-0.043 0.050-0.080 0.088-0.106s0.081-0.039 0.125-0.039c0.044 0 0.087 0.014 0.125 0.039s0.068 0.062 0.088 0.106l3.687 7.287c0.21 0.422 0.557 0.742 0.972 0.894s0.867 0.128 1.266-0.069l6.325-3.094c0.043-0.021 0.090-0.028 0.137-0.021s0.090 0.029 0.126 0.062c0.037 0.032 0.064 0.075 0.080 0.124s0.018 0.101 0.008 0.151zM20.75 22.316c-0.021 0.203-0.109 0.391-0.247 0.527s-0.317 0.213-0.503 0.215h-0.075c-2.61-0.289-5.24-0.289-7.85 0-0.197 0.023-0.395-0.041-0.549-0.177s-0.254-0.335-0.276-0.552c-0.018-0.218 0.043-0.435 0.169-0.605s0.308-0.278 0.506-0.302c2.709-0.316 5.441-0.316 8.15 0 0.196 0.024 0.375 0.131 0.501 0.297s0.188 0.38 0.174 0.596z"></path>
</symbol>
<symbol id="icon-insta" viewBox="0 0 32 32">
<path d="M16 8.897c-1.405 0-2.778 0.417-3.946 1.197s-2.079 1.89-2.616 3.188-0.678 2.726-0.404 4.104c0.274 1.378 0.951 2.643 1.944 3.637s2.259 1.67 3.637 1.944c1.378 0.274 2.806 0.133 4.104-0.404s2.407-1.448 3.188-2.616c0.781-1.168 1.197-2.541 1.197-3.946 0-1.884-0.748-3.69-2.080-5.022s-3.139-2.080-5.023-2.080zM16 21.25c-1.038 0-2.053-0.308-2.917-0.885s-1.536-1.397-1.934-2.356c-0.397-0.959-0.501-2.015-0.299-3.033s0.703-1.954 1.437-2.688 1.67-1.234 2.688-1.437c1.018-0.203 2.074-0.099 3.033 0.299s1.779 1.070 2.356 1.934c0.577 0.863 0.885 1.878 0.885 2.917-0.004 1.391-0.558 2.724-1.542 3.708s-2.317 1.538-3.708 1.542zM22.794 0.868h-13.588c-2.211 0-4.332 0.878-5.896 2.442s-2.442 3.685-2.442 5.896v13.588c0 2.211 0.878 4.332 2.442 5.896s3.685 2.442 5.896 2.442h13.588c2.211 0 4.332-0.878 5.896-2.442s2.442-3.685 2.442-5.896v-13.588c0-2.211-0.878-4.332-2.442-5.896s-3.685-2.442-5.896-2.442zM29.279 22.794c0 1.72-0.683 3.369-1.899 4.586s-2.866 1.899-4.586 1.899h-13.588c-1.72 0-3.37-0.683-4.586-1.899s-1.899-2.866-1.899-4.586v-13.588c0-1.72 0.683-3.37 1.899-4.586s2.866-1.899 4.586-1.899h13.588c1.72 0 3.369 0.683 4.586 1.899s1.899 2.866 1.899 4.586v13.588zM25.574 7.971c0 0.305-0.091 0.604-0.26 0.858s-0.411 0.452-0.693 0.569c-0.282 0.117-0.593 0.148-0.892 0.088s-0.575-0.207-0.791-0.423c-0.216-0.216-0.363-0.491-0.423-0.791s-0.029-0.61 0.088-0.892 0.315-0.523 0.569-0.693c0.254-0.17 0.552-0.26 0.858-0.26 0.41 0 0.802 0.163 1.092 0.452s0.452 0.682 0.452 1.092z"></path>
</symbol>
<symbol id="icon-vector" viewBox="0 0 29 32">
<path fill="#2b7fff" style="fill: var(--color2, #2b7fff)" d="M14.612 0.072c-1.145 0-2.215 0.522-3.127 1.376s-1.692 2.044-2.343 3.485c-0.136 0.302-0.267 0.616-0.391 0.939-0.336-0.053-0.673-0.097-1.011-0.131-0.393-0.039-0.777-0.064-1.15-0.072-1.12-0.027-2.143 0.087-3.040 0.359-1.196 0.363-2.182 1.028-2.755 2.020s-0.656 2.179-0.372 3.396c0.284 1.217 0.924 2.488 1.847 3.772 0.194 0.269 0.401 0.539 0.619 0.81-0.214 0.264-0.42 0.533-0.618 0.809-0.923 1.284-1.563 2.555-1.847 3.772s-0.201 2.404 0.372 3.396c0.573 0.992 1.559 1.658 2.755 2.020s2.616 0.444 4.19 0.287c0.33-0.033 0.667-0.077 1.010-0.131 0.122 0.317 0.252 0.631 0.392 0.941 0.651 1.441 1.431 2.631 2.343 3.485s1.982 1.376 3.127 1.376c1.145 0 2.215-0.522 3.127-1.376s1.692-2.044 2.343-3.485c0.14-0.31 0.27-0.624 0.392-0.941 0.342 0.054 0.679 0.098 1.009 0.131 1.573 0.157 2.994 0.076 4.19-0.287s2.182-1.028 2.755-2.020c0.573-0.992 0.656-2.179 0.372-3.396s-0.924-2.488-1.847-3.772c-0.198-0.275-0.404-0.545-0.618-0.809 0.214-0.264 0.42-0.534 0.619-0.809 0.923-1.284 1.563-2.555 1.847-3.772s0.201-2.404-0.372-3.396c-0.573-0.992-1.559-1.658-2.755-2.020-0.897-0.272-1.92-0.385-3.039-0.359-0.373 0.009-0.757 0.033-1.15 0.072-0.33 0.033-0.667 0.077-1.010 0.131-0.122-0.317-0.252-0.63-0.391-0.939-0.651-1.441-1.431-2.631-2.343-3.485s-1.982-1.376-3.127-1.376l0 0zM14.612 1.346c0.764 0 1.513 0.336 2.256 1.032s1.452 1.749 2.053 3.080c0.098 0.217 0.191 0.436 0.279 0.657-1.46 0.325-3.007 0.823-4.588 1.488-1.58-0.665-3.127-1.163-4.587-1.488 0.090-0.226 0.183-0.446 0.279-0.658 0.601-1.331 1.31-2.384 2.053-3.080s1.492-1.031 2.256-1.031l-0 0zM6.186 6.941c0.123-0.001 0.248-0 0.375 0.002 0.338 0.008 0.69 0.029 1.053 0.066 0.232 0.023 0.47 0.053 0.711 0.088-0.449 1.427-0.791 3.015-1.005 4.717-1.367 1.036-2.572 2.127-3.583 3.229-0.148-0.187-0.292-0.378-0.431-0.571-0.852-1.185-1.409-2.326-1.641-3.318s-0.147-1.808 0.235-2.469c0.382-0.662 1.047-1.143 2.021-1.438 0.639-0.194 1.405-0.298 2.266-0.306l0 0zM23.038 6.941c0.861 0.008 1.626 0.112 2.266 0.306 0.974 0.295 1.639 0.776 2.021 1.438s0.466 1.478 0.235 2.469c-0.231 0.991-0.789 2.132-1.641 3.318-0.14 0.194-0.283 0.384-0.431 0.571-1.011-1.102-2.216-2.192-3.582-3.229-0.214-1.702-0.556-3.29-1.005-4.718 0.241-0.035 0.478-0.065 0.71-0.088 0.35-0.035 0.701-0.057 1.053-0.066 0.125-0.003 0.25-0.004 0.375-0.003v0zM19.634 7.326c0.339 1.053 0.619 2.214 0.829 3.457-0.676-0.457-1.369-0.89-2.076-1.298s-1.427-0.791-2.161-1.148c1.181-0.44 2.327-0.778 3.408-1.010v-0zM9.59 7.326c1.081 0.233 2.226 0.57 3.407 1.010-0.734 0.357-1.454 0.74-2.161 1.148s-1.399 0.84-2.075 1.297c0.209-1.243 0.49-2.404 0.829-3.456zM14.612 8.994c1.037 0.457 2.089 0.989 3.138 1.595s2.037 1.252 2.951 1.921c0.122 1.127 0.188 2.304 0.188 3.516s-0.066 2.388-0.188 3.514c-0.915 0.669-1.902 1.315-2.951 1.921s-2.102 1.138-3.139 1.595c-1.037-0.457-2.090-0.989-3.139-1.595s-2.036-1.251-2.95-1.92c-0.122-1.127-0.188-2.304-0.188-3.515s0.066-2.39 0.188-3.517c0.915-0.669 1.901-1.315 2.95-1.921s2.102-1.137 3.138-1.594v-0zM14.698 10.911l-3.648 2.251 3.648 2.251 3.648-2.251-3.648-2.251zM7.146 13.579c-0.057 0.814-0.086 1.63-0.086 2.447 0 0.832 0.029 1.648 0.086 2.445-0.972-0.802-1.837-1.626-2.579-2.446 0.742-0.82 1.607-1.643 2.579-2.446zM22.078 13.58c0.971 0.802 1.836 1.626 2.578 2.445-0.742 0.82-1.607 1.643-2.578 2.445 0.057-0.814 0.086-1.629 0.086-2.445 0-0.832-0.029-1.649-0.086-2.446h0zM10.228 14.152v4.445l3.831 2.364v-4.445l-3.831-2.365zM19.164 14.154l-3.83 2.364v4.443l3.83-2.364v-4.443h-0zM3.736 17.007c1.011 1.103 2.216 2.193 3.583 3.229 0.214 1.701 0.556 3.29 1.005 4.716-0.241 0.035-0.478 0.064-0.71 0.088-1.453 0.145-2.72 0.057-3.693-0.238s-1.639-0.776-2.021-1.438c-0.382-0.662-0.466-1.478-0.235-2.469s0.789-2.132 1.641-3.318c0.139-0.193 0.283-0.384 0.43-0.57zM25.488 17.007c0.15 0.191 0.295 0.381 0.43 0.57 0.852 1.185 1.409 2.326 1.641 3.318s0.147 1.808-0.235 2.469c-0.382 0.662-1.047 1.143-2.021 1.438s-2.241 0.383-3.693 0.238c-0.237-0.024-0.473-0.053-0.709-0.088 0.449-1.427 0.791-3.016 1.005-4.718 1.366-1.036 2.571-2.126 3.582-3.228v0zM20.463 21.267c-0.209 1.243-0.49 2.404-0.829 3.457-1.081-0.233-2.227-0.571-3.408-1.011 0.734-0.357 1.455-0.741 2.161-1.149s1.399-0.841 2.075-1.297h-0zM8.761 21.268c0.676 0.456 1.368 0.889 2.074 1.297s1.428 0.791 2.161 1.149c-1.181 0.44-2.326 0.778-3.407 1.010-0.339-1.052-0.619-2.213-0.829-3.456zM14.65 21.326l0.046 0.029 0.046-0.029h-0.092zM14.612 24.447c1.581 0.665 3.128 1.163 4.588 1.488-0.088 0.222-0.181 0.442-0.279 0.659-0.601 1.33-1.31 2.384-2.053 3.080s-1.492 1.032-2.256 1.032c-0.764 0-1.513-0.336-2.256-1.032s-1.452-1.749-2.053-3.080c-0.098-0.218-0.191-0.438-0.279-0.659 1.46-0.325 3.007-0.823 4.588-1.488h-0z"></path>
</symbol>
</defs>
</svg>
